# xmcd
#
# Track frame offsets:
#	150
#	19160
#	38172
#	56185
#	71860
#	80662
#	91485
#	105825
#	113335
#	124742
#	144212
#	161670
#	179112
#	196312
#
# Disc length: 2822
#
# Revision: 2
# Processed by: cddbd v1.5.1PL0 Copyright (c) Steve Scherf et al.
# Submitted via: ExactAudioCopy v0.90b4
# Normalized: r1:DSETVAR1,TDELIM( - )
#
DISCID=be0b040e
DTITLE=Various Artist - Divas do Brasil
DYEAR=1900
DGENRE=Pop
TTITLE0=Leila Pinheiro - Feliz
TTITLE1=Nana Gaymmi - Saudade de Amar
TTITLE2=Zizi Possi - Disparada
TTITLE3=Ivete Sangalo - A Lua Que Eu Te Dei
TTITLE4=Maria Bethânia - Ronda
TTITLE5=Paula Toller - Por Causa de Você
TTITLE6=Marina - Preciso Dizer Que Te Amo
TTITLE7=Sandy - Fascinação
TTITLE8=Nara Leão - Este Seu Olhar
TTITLE9=Elis Regina - Corsário
TTITLE10=Maysa - Ne Me Quitte Pas
TTITLE11=Elba Ramalho - Paisagem na Janela
TTITLE12=Alcione - Linda Flor
TTITLE13=Gal Gosta - Aquarela do Brasil
EXTD=
EXTT0=
EXTT1=
EXTT2=
EXTT3=
EXTT4=
EXTT5=
EXTT6=
EXTT7=
EXTT8=
EXTT9=
EXTT10=
EXTT11=
EXTT12=
EXTT13=
PLAYORDER=
